<?xml version="1.0" encoding="UTF-8"?>
<svg width="16px" height="16px" viewBox="0 0 16 16" version="1.1" xmlns="http://www.w3.org/2000/svg" xmlns:xlink="http://www.w3.org/1999/xlink">
    <!-- Generator: Sketch 50 (54983) - http://www.bohemiancoding.com/sketch -->
    <title>icon</title>
    <desc>Created with Sketch.</desc>
    <defs></defs>
    <g id="Page-1" stroke="none" stroke-width="1" fill="none" fill-rule="evenodd">
        <g id="icon" fill="#33495D" fill-rule="nonzero">
            <path d="M15.4570847,1.89857627 L10.3690847,1.89857627 C10.1217627,0.82440678 9.15932203,0.0200677966 8.01111864,0.0200677966 C6.86291525,0.0200677966 5.90047458,0.82440678 5.65315254,1.89857627 L0.565423729,1.89857627 C0.266033898,1.89857627 0.0230508475,2.14155932 0.0230508475,2.44094915 C0.0230508475,2.74033898 0.266033898,2.98332203 0.565423729,2.98332203 L5.65342373,2.98332203 C5.90074576,4.0580339 6.86291525,4.86237288 8.01111864,4.86237288 C9.15932203,4.86237288 10.1214915,4.0580339 10.3688136,2.98332203 L15.4570847,2.98332203 C15.7564746,2.98332203 15.9994576,2.74033898 15.9994576,2.44094915 C15.9994576,2.14155932 15.7567458,1.89857627 15.4570847,1.89857627 Z M8.01111864,3.77762712 C7.2740339,3.77762712 6.67444068,3.17776271 6.67444068,2.44040678 C6.67444068,1.70386441 7.2740339,1.10481356 8.01111864,1.10481356 C8.72542373,1.10481356 9.30522034,1.66861017 9.34101695,2.3739661 C9.3380339,2.39620339 9.33423729,2.41789831 9.33423729,2.44094915 C9.33423729,2.46372881 9.33830508,2.48542373 9.34074576,2.50766102 C9.30522034,3.21328814 8.72515254,3.77762712 8.01111864,3.77762712 Z" id="Shape"></path>
            <path d="M15.4570847,12.2033898 L14.324339,12.2033898 C14.0772881,11.1292203 13.1148475,10.3246102 11.9663729,10.3246102 C10.8178983,10.3246102 9.85545763,11.1292203 9.60840678,12.2033898 L0.565423729,12.2033898 C0.266033898,12.2033898 0.0230508475,12.4463729 0.0230508475,12.7457627 C0.0230508475,13.0451525 0.266033898,13.2881356 0.565423729,13.2881356 L9.60867797,13.2881356 C9.85627119,14.3625763 10.8184407,15.1669153 11.9663729,15.1669153 C13.1143051,15.1669153 14.0764746,14.3625763 14.3240678,13.2881356 L15.4570847,13.2881356 C15.7564746,13.2881356 15.9994576,13.0451525 15.9994576,12.7457627 C15.9994576,12.4463729 15.7567458,12.2033898 15.4570847,12.2033898 Z M11.9663729,14.0821695 C11.2292881,14.0821695 10.6296949,13.4823051 10.6296949,12.7449492 C10.6296949,12.0084068 11.2292881,11.4093559 11.9663729,11.4093559 C12.7034576,11.4093559 13.3030508,12.0084068 13.3030508,12.7449492 C13.3030508,13.4823051 12.7034576,14.0821695 11.9663729,14.0821695 Z" id="Shape"></path>
            <path d="M15.4570847,7.05111864 L6.41410169,7.05111864 C6.16705085,5.97694915 5.20461017,5.17233898 4.05613559,5.17233898 C2.90766102,5.17233898 1.94522034,5.97694915 1.69816949,7.05111864 L0.565423729,7.05111864 C0.266033898,7.05111864 0.0230508475,7.29410169 0.0230508475,7.59349153 C0.0230508475,7.89288136 0.266033898,8.13586441 0.565423729,8.13586441 L1.69844068,8.13586441 C1.9460339,9.21030508 2.90820339,10.0146441 4.05613559,10.0146441 C5.2040678,10.0146441 6.16623729,9.21030508 6.41383051,8.13586441 L15.4570847,8.13586441 C15.7564746,8.13586441 15.9994576,7.89288136 15.9994576,7.59349153 C15.9994576,7.29410169 15.7567458,7.05111864 15.4570847,7.05111864 Z M4.05613559,8.92989831 C3.31905085,8.92989831 2.71945763,8.3300339 2.71945763,7.59267797 C2.71945763,6.85613559 3.31905085,6.25708475 4.05613559,6.25708475 C4.79322034,6.25708475 5.39281356,6.85613559 5.39281356,7.59267797 C5.39281356,8.3300339 4.79322034,8.92989831 4.05613559,8.92989831 Z" id="Shape"></path>
        </g>
    </g>
</svg>